<svg width="182" height="203" viewBox="0 0 182 203" fill="none" xmlns="http://www.w3.org/2000/svg">
<g clip-path="url(#clip0_36_74)">
<path d="M136.139 0H45.8526C42.0222 0.00168064 38.349 1.69941 35.6403 4.72016C32.9315 7.74091 31.4086 11.8376 31.4064 16.11V186.9C31.4101 191.171 32.9334 195.267 35.6419 198.287C38.3504 201.308 42.0227 203.006 45.8526 203.009H136.139C139.969 203.005 143.642 201.307 146.352 198.287C149.061 195.267 150.587 191.172 150.594 186.9V16.1353C150.589 11.8621 149.064 7.76543 146.354 4.74495C143.644 1.72448 139.97 0.0270528 136.139 0.025375" fill="#405866"/>
<path d="M126.771 12.2942H55.2228C52.1882 12.2942 49.2775 13.6366 47.1291 16.0269C44.9807 18.4173 43.77 21.6604 43.7625 25.0451V160.379C43.7685 163.765 44.9787 167.009 47.1275 169.4C49.2762 171.79 52.1878 173.132 55.2228 173.13H126.771C133.085 173.13 138.203 167.389 138.203 160.379V25.0324C138.203 17.9909 133.07 12.2815 126.771 12.2815" fill="#85CFEA"/>
<path d="M89.2298 12.0063H55.4603C52.4258 12.0063 49.5151 13.3487 47.3667 15.7391C45.2183 18.1294 44.0075 21.3726 44 24.7573V160.092C44.006 163.477 45.2163 166.721 47.365 169.112C49.5138 171.502 52.4253 172.844 55.4603 172.843H127.009C129.321 172.843 131.457 172.053 133.254 170.752C102.834 126.555 86.551 67.143 89.2384 12" fill="#28A6DE"/>
<path d="M100.384 188.378C100.384 194.141 96.187 198.838 91.0085 198.838C85.83 198.838 81.6327 194.144 81.6327 188.378C81.6327 182.611 85.83 177.917 91.0085 177.917C96.187 177.917 100.384 182.611 100.384 188.378ZM64.2545 188.378C64.2737 189.395 64.1106 190.407 63.7748 191.353C63.439 192.3 62.9374 193.162 62.2991 193.889C61.6609 194.617 60.899 195.195 60.0579 195.589C59.2169 195.984 58.3137 196.188 57.4012 196.189C56.4887 196.189 55.5852 195.987 54.7438 195.593C53.9023 195.199 53.1397 194.622 52.5007 193.896C51.8616 193.169 51.359 192.308 51.0221 191.362C50.6853 190.416 50.5211 189.405 50.5391 188.387C50.5745 186.385 51.312 184.479 52.5933 183.077C53.8746 181.675 55.5977 180.889 57.3926 180.887C59.1876 180.886 60.9115 181.67 62.1944 183.07C63.4773 184.471 64.2169 186.376 64.2545 188.378ZM117.76 188.378C117.733 189.4 117.891 190.419 118.224 191.372C118.556 192.326 119.057 193.195 119.696 193.929C120.336 194.663 121.101 195.246 121.946 195.645C122.791 196.043 123.699 196.248 124.616 196.248C125.533 196.248 126.441 196.043 127.286 195.645C128.131 195.246 128.896 194.663 129.535 193.929C130.175 193.195 130.675 192.326 131.008 191.372C131.341 190.419 131.499 189.4 131.472 188.378C131.472 186.349 130.75 184.404 129.464 182.97C128.178 181.536 126.434 180.73 124.616 180.73C122.798 180.73 121.054 181.536 119.768 182.97C118.482 184.404 117.76 186.349 117.76 188.378Z" fill="#CBD5DC"/>
</g>
<defs>
<clipPath id="clip0_36_74">
<rect width="182" height="203" fill="white"/>
</clipPath>
</defs>
</svg>
