<svg width="249" height="210" viewBox="0 0 249 210" fill="none" xmlns="http://www.w3.org/2000/svg">
<g clip-path="url(#clip0_36_79)">
<path d="M235.167 169.727C232.282 164.109 228.969 158.013 221.333 158.013H214.417C222.053 158.013 228.25 152.769 228.25 146.3V46.7133C228.254 45.1782 227.899 43.6575 227.205 42.238C226.512 40.8185 225.494 39.5281 224.21 38.4404C222.925 37.3527 221.399 36.4891 219.719 35.8988C218.039 35.3085 216.237 35.0031 214.417 35H34.5833C26.9473 35 20.75 40.2442 20.75 46.7133V146.3C20.75 152.769 26.9473 158.013 34.5833 158.013H27.6667C20.0307 158.013 16.1366 163.87 13.8333 169.727L0 198.281C0 204.756 6.19733 210 13.8333 210H235.167C242.803 210 249 204.756 249 198.287L235.167 169.727Z" fill="#CCD6DD"/>
<path d="M0.0541992 198.771L0.0956992 199.103L1.27153 203.14C2.36326 205.18 4.12825 206.911 6.35563 208.128C8.58301 209.344 11.1786 209.994 13.8322 210H235.166C238.737 209.99 242.165 208.816 244.733 206.723C247.301 204.63 248.81 201.78 248.944 198.771H0.0541992Z" fill="#9AAAB4"/>
<path d="M214.417 140.438C214.417 143.675 211.325 146.294 207.5 146.294H41.5C37.682 146.294 34.5833 143.675 34.5833 140.438V52.5759C34.5833 49.3384 37.682 46.7192 41.5 46.7192H207.5C211.325 46.7192 214.417 49.3442 214.417 52.5759V140.438Z" fill="#5DADEC"/>
<path d="M227.6 181.078L222.343 168.391C220.69 165.707 217.951 163.508 214.126 163.508H35.3442C31.5262 163.508 29.0777 165.888 27.3485 169.552L22.5898 181.084C21.0751 184.561 25.6885 186.941 29.5065 186.941H81.921C81.921 186.941 88.4019 186.667 89.5501 183.394C90.8781 179.614 92.4205 173.921 92.7525 172.917C93.2643 171.377 95.4361 169.82 98.6731 169.82H158.004C161.463 169.82 163.164 171.296 163.614 173.122C163.904 174.312 165.772 179.777 166.643 183.517C167.411 186.847 175.088 186.935 175.088 186.935H220.697C224.508 186.935 229.115 184.187 227.6 181.078Z" fill="#AEBBC1"/>
<path d="M154.76 193.159H100.942C98.3481 193.159 97.2207 191.158 97.5942 189.222C97.9677 187.291 100.077 178.763 100.243 177.771C100.402 176.773 102.138 175.583 103.868 175.583H152.388C154.442 175.583 155.777 176.534 156.192 178.436C156.6 180.343 158.281 188.008 158.412 189.758C158.544 191.514 157.243 193.159 154.76 193.159Z" fill="#9AAAB4"/>
</g>
<defs>
<clipPath id="clip0_36_79">
<rect width="249" height="210" fill="white"/>
</clipPath>
</defs>
</svg>
